<svg width="304" height="61" viewBox="0 0 304 61" fill="none" xmlns="http://www.w3.org/2000/svg">
<path d="M0 59.5V1.5C0 0.671573 0.671569 0 1.5 0H300.34C301.545 0 302.258 1.34861 301.58 2.34438L282.978 29.6556C282.631 30.1651 282.631 30.8349 282.978 31.3444L301.58 58.6556C302.258 59.6514 301.545 61 300.34 61H1.5C0.671573 61 0 60.3284 0 59.5Z" fill="#404040"/>
<path d="M73.9999 13H50.9999C49.7999 28.2 56.4999 35 59.9999 36.5V39C53.9999 41 52.1666 45.5 51.9999 47.5H71.9999C71.9999 43.1 67.3333 40 64.9999 39V36.5C71.7608 32.8122 73.839 24.363 74.1367 18C74.2265 16.0809 74.1544 14.3517 73.9999 13Z" fill="#F8F8F9"/>
<path d="M55 30.5C52 29.5 45 25.6 45 18H52" stroke="#F8F8F9" stroke-width="2"/>
<path d="M70 30.5C73 29.5 80.5 25.6 80.5 18H74" stroke="#F8F8F9" stroke-width="2"/>
<path d="M106.614 38.75V21.2955H112.716C113.932 21.2955 114.935 21.5057 115.724 21.9261C116.514 22.3409 117.102 22.9006 117.489 23.6051C117.875 24.304 118.068 25.0795 118.068 25.9318C118.068 26.6818 117.935 27.3011 117.668 27.7898C117.406 28.2784 117.06 28.6648 116.628 28.9489C116.202 29.233 115.739 29.4432 115.239 29.5795V29.75C115.773 29.7841 116.31 29.9716 116.849 30.3125C117.389 30.6534 117.841 31.142 118.205 31.7784C118.568 32.4148 118.75 33.1932 118.75 34.1136C118.75 34.9886 118.551 35.7756 118.153 36.4744C117.756 37.1733 117.128 37.7273 116.27 38.1364C115.412 38.5455 114.295 38.75 112.92 38.75H106.614ZM108.727 36.875H112.92C114.301 36.875 115.281 36.608 115.861 36.0739C116.446 35.5341 116.739 34.8807 116.739 34.1136C116.739 33.5227 116.588 32.9773 116.287 32.4773C115.986 31.9716 115.557 31.5682 115 31.267C114.443 30.9602 113.784 30.8068 113.023 30.8068H108.727V36.875ZM108.727 28.9659H112.648C113.284 28.9659 113.858 28.8409 114.369 28.5909C114.886 28.3409 115.295 27.9886 115.597 27.5341C115.903 27.0795 116.057 26.5455 116.057 25.9318C116.057 25.1648 115.79 24.5142 115.256 23.9801C114.722 23.4403 113.875 23.1705 112.716 23.1705H108.727V28.9659ZM122.223 38.75V21.2955H132.757V23.1705H124.337V29.0682H132.212V30.9432H124.337V36.875H132.893V38.75H122.223ZM146.112 25.6591C146.01 24.7955 145.595 24.125 144.868 23.6477C144.141 23.1705 143.249 22.9318 142.192 22.9318C141.419 22.9318 140.743 23.0568 140.163 23.3068C139.589 23.5568 139.141 23.9006 138.817 24.3381C138.499 24.7756 138.339 25.2727 138.339 25.8295C138.339 26.2955 138.45 26.696 138.672 27.0312C138.899 27.3608 139.189 27.6364 139.541 27.858C139.893 28.0739 140.263 28.2528 140.649 28.3949C141.036 28.5312 141.391 28.642 141.714 28.7273L143.487 29.2045C143.942 29.3239 144.447 29.4886 145.004 29.6989C145.567 29.9091 146.104 30.196 146.615 30.5597C147.132 30.9176 147.558 31.3778 147.893 31.9403C148.229 32.5028 148.396 33.1932 148.396 34.0114C148.396 34.9545 148.149 35.8068 147.655 36.5682C147.166 37.3295 146.45 37.9347 145.507 38.3835C144.57 38.8324 143.43 39.0568 142.089 39.0568C140.839 39.0568 139.757 38.8551 138.842 38.4517C137.933 38.0483 137.217 37.4858 136.695 36.7642C136.178 36.0426 135.885 35.2045 135.817 34.25H137.999C138.055 34.9091 138.277 35.4545 138.663 35.8864C139.055 36.3125 139.55 36.6307 140.146 36.8409C140.749 37.0455 141.396 37.1477 142.089 37.1477C142.896 37.1477 143.621 37.017 144.263 36.7557C144.905 36.4886 145.413 36.1193 145.788 35.6477C146.163 35.1705 146.351 34.6136 146.351 33.9773C146.351 33.3977 146.189 32.9261 145.865 32.5625C145.541 32.1989 145.115 31.9034 144.587 31.6761C144.058 31.4489 143.487 31.25 142.874 31.0795L140.726 30.4659C139.362 30.0739 138.283 29.5142 137.487 28.7869C136.692 28.0597 136.294 27.108 136.294 25.9318C136.294 24.9545 136.558 24.1023 137.087 23.375C137.621 22.642 138.337 22.0739 139.234 21.6705C140.138 21.2614 141.146 21.0568 142.26 21.0568C143.385 21.0568 144.385 21.2585 145.26 21.6619C146.135 22.0597 146.828 22.6051 147.339 23.2983C147.857 23.9915 148.129 24.7784 148.158 25.6591H146.112ZM150.917 23.1705V21.2955H164.008V23.1705H158.519V38.75H156.406V23.1705H150.917ZM183.565 25.6591C183.463 24.7955 183.048 24.125 182.321 23.6477C181.594 23.1705 180.702 22.9318 179.645 22.9318C178.872 22.9318 178.196 23.0568 177.616 23.3068C177.043 23.5568 176.594 23.9006 176.27 24.3381C175.952 24.7756 175.793 25.2727 175.793 25.8295C175.793 26.2955 175.903 26.696 176.125 27.0312C176.352 27.3608 176.642 27.6364 176.994 27.858C177.347 28.0739 177.716 28.2528 178.102 28.3949C178.489 28.5312 178.844 28.642 179.168 28.7273L180.94 29.2045C181.395 29.3239 181.901 29.4886 182.457 29.6989C183.02 29.9091 183.557 30.196 184.068 30.5597C184.585 30.9176 185.011 31.3778 185.347 31.9403C185.682 32.5028 185.849 33.1932 185.849 34.0114C185.849 34.9545 185.602 35.8068 185.108 36.5682C184.619 37.3295 183.903 37.9347 182.96 38.3835C182.023 38.8324 180.884 39.0568 179.543 39.0568C178.293 39.0568 177.21 38.8551 176.295 38.4517C175.386 38.0483 174.67 37.4858 174.148 36.7642C173.631 36.0426 173.338 35.2045 173.27 34.25H175.452C175.509 34.9091 175.73 35.4545 176.116 35.8864C176.509 36.3125 177.003 36.6307 177.599 36.8409C178.202 37.0455 178.849 37.1477 179.543 37.1477C180.349 37.1477 181.074 37.017 181.716 36.7557C182.358 36.4886 182.866 36.1193 183.241 35.6477C183.616 35.1705 183.804 34.6136 183.804 33.9773C183.804 33.3977 183.642 32.9261 183.318 32.5625C182.994 32.1989 182.568 31.9034 182.04 31.6761C181.511 31.4489 180.94 31.25 180.327 31.0795L178.179 30.4659C176.815 30.0739 175.736 29.5142 174.94 28.7869C174.145 28.0597 173.747 27.108 173.747 25.9318C173.747 24.9545 174.011 24.1023 174.54 23.375C175.074 22.642 175.79 22.0739 176.688 21.6705C177.591 21.2614 178.599 21.0568 179.713 21.0568C180.838 21.0568 181.838 21.2585 182.713 21.6619C183.588 22.0597 184.281 22.6051 184.793 23.2983C185.31 23.9915 185.582 24.7784 185.611 25.6591H183.565ZM189.325 38.75V21.2955H199.859V23.1705H191.438V29.0682H199.313V30.9432H191.438V36.875H199.995V38.75H189.325ZM203.668 38.75V21.2955H205.782V36.875H213.896V38.75H203.668ZM217.168 38.75V21.2955H219.282V36.875H227.396V38.75H217.168ZM230.668 38.75V21.2955H241.202V23.1705H232.782V29.0682H240.657V30.9432H232.782V36.875H241.339V38.75H230.668ZM245.012 38.75V21.2955H250.91C252.273 21.2955 253.393 21.5284 254.268 21.9943C255.143 22.4545 255.79 23.0881 256.211 23.8949C256.631 24.7017 256.842 25.6193 256.842 26.6477C256.842 27.6761 256.631 28.5881 256.211 29.3835C255.79 30.179 255.146 30.804 254.276 31.2585C253.407 31.7074 252.296 31.9318 250.944 31.9318H246.171V30.0227H250.876C251.808 30.0227 252.558 29.8864 253.126 29.6136C253.7 29.3409 254.114 28.9545 254.37 28.4545C254.631 27.9489 254.762 27.3466 254.762 26.6477C254.762 25.9489 254.631 25.3381 254.37 24.8153C254.109 24.2926 253.691 23.8892 253.117 23.6051C252.543 23.3153 251.785 23.1705 250.842 23.1705H247.126V38.75H245.012ZM253.228 30.9091L257.523 38.75H255.069L250.842 30.9091H253.228Z" fill="white"/>
</svg>
