<svg width="271" height="61" viewBox="0 0 271 61" fill="none" xmlns="http://www.w3.org/2000/svg">
<path d="M0 59.5V1.5C0 0.671573 0.671576 0 1.5 0H268.331C269.501 0 270.22 1.28043 269.612 2.28002L252.906 29.72C252.615 30.1991 252.615 30.8009 252.906 31.28L269.612 58.72C270.22 59.7196 269.501 61 268.331 61H1.5C0.671573 61 0 60.3284 0 59.5Z" fill="#20529A"/>
<path d="M54 44.0989V29.3199C54 29.1249 54.1151 28.9479 54.2899 28.8614C60.5595 25.7611 62.4925 17.9775 62 16.5C61.6453 15.4359 62.3128 14.5553 62.8172 14.1371C62.9291 14.0443 63.0856 14.0231 63.2247 14.0652C69.6655 16.0124 67.9462 22.5368 65.9489 26.2243C65.7623 26.5688 66.0058 27 66.3976 27H74.4037C74.4673 27 74.5327 27.0129 74.5915 27.0373C78.0797 28.4836 77.1015 31.0758 75.9074 32.547C75.7085 32.792 75.7505 33.1616 75.9791 33.3791C77.4639 34.7915 76.3711 36.6356 75.3526 37.67C75.1635 37.8621 75.1399 38.1649 75.2714 38.4002C76.1458 39.9651 74.7907 41.3829 73.6007 42.1548C73.3144 42.3405 73.2523 42.7501 73.4484 43.0294C74.6777 44.7805 73.5352 46.558 72.6357 47.3814C72.5494 47.4603 72.4359 47.5 72.319 47.5H59C58.7239 47.5 58.5061 47.2692 58.4053 47.0121C57.9311 45.8028 55.7828 44.961 54.3888 44.5946C54.1622 44.535 54 44.3333 54 44.0989Z" fill="#FCFDFE"/>
<path d="M51.116 27.5H47.951C47.4258 27.5 47 27.9258 47 28.451V28.9194C47 29.1859 46.7839 29.4019 46.5174 29.4019C46.2513 29.4019 46.0354 29.6173 46.0349 29.8835L46.0011 45.4995C46.0005 45.7757 46.2243 46 46.5005 46C46.7764 46 47 46.2239 47 46.4997C47 46.7759 47.2239 47 47.5 47H51.5C51.7761 47 52 46.7761 52 46.5C52 46.2239 52.2239 46 52.5 46C52.7761 46 53 45.7761 53 45.5V29.7679C53 29.4918 52.7761 29.2679 52.5 29.2679C52.2239 29.2679 52 29.0441 52 28.7679V28.384C52 27.8958 51.6042 27.5 51.116 27.5Z" fill="#FCFDFE"/>
<path d="M103.121 21.7955H105.644L111.576 36.2841H111.78L117.712 21.7955H120.235V39.25H118.258V25.9886H118.087L112.633 39.25H110.723L105.269 25.9886H105.098V39.25H103.121V21.7955ZM135.927 21.7955H138.041V33.3523C138.041 34.5455 137.76 35.6108 137.197 36.5483C136.64 37.4801 135.853 38.2159 134.836 38.7557C133.819 39.2898 132.626 39.5568 131.257 39.5568C129.888 39.5568 128.694 39.2898 127.677 38.7557C126.66 38.2159 125.87 37.4801 125.308 36.5483C124.751 35.6108 124.473 34.5455 124.473 33.3523V21.7955H126.586V33.1818C126.586 34.0341 126.774 34.7926 127.149 35.4574C127.524 36.1165 128.058 36.6364 128.751 37.017C129.45 37.392 130.285 37.5795 131.257 37.5795C132.228 37.5795 133.064 37.392 133.763 37.017C134.461 36.6364 134.995 36.1165 135.365 35.4574C135.74 34.7926 135.927 34.0341 135.927 33.1818V21.7955ZM151.807 26.1591C151.705 25.2955 151.29 24.625 150.563 24.1477C149.836 23.6705 148.944 23.4318 147.887 23.4318C147.114 23.4318 146.438 23.5568 145.858 23.8068C145.285 24.0568 144.836 24.4006 144.512 24.8381C144.194 25.2756 144.035 25.7727 144.035 26.3295C144.035 26.7955 144.145 27.196 144.367 27.5312C144.594 27.8608 144.884 28.1364 145.236 28.358C145.589 28.5739 145.958 28.7528 146.344 28.8949C146.731 29.0312 147.086 29.142 147.41 29.2273L149.182 29.7045C149.637 29.8239 150.143 29.9886 150.699 30.1989C151.262 30.4091 151.799 30.696 152.31 31.0597C152.827 31.4176 153.253 31.8778 153.589 32.4403C153.924 33.0028 154.091 33.6932 154.091 34.5114C154.091 35.4545 153.844 36.3068 153.35 37.0682C152.861 37.8295 152.145 38.4347 151.202 38.8835C150.265 39.3324 149.125 39.5568 147.785 39.5568C146.535 39.5568 145.452 39.3551 144.537 38.9517C143.628 38.5483 142.912 37.9858 142.39 37.2642C141.873 36.5426 141.58 35.7045 141.512 34.75H143.694C143.75 35.4091 143.972 35.9545 144.358 36.3864C144.75 36.8125 145.245 37.1307 145.841 37.3409C146.444 37.5455 147.091 37.6477 147.785 37.6477C148.591 37.6477 149.316 37.517 149.958 37.2557C150.6 36.9886 151.108 36.6193 151.483 36.1477C151.858 35.6705 152.046 35.1136 152.046 34.4773C152.046 33.8977 151.884 33.4261 151.56 33.0625C151.236 32.6989 150.81 32.4034 150.282 32.1761C149.753 31.9489 149.182 31.75 148.569 31.5795L146.421 30.9659C145.057 30.5739 143.978 30.0142 143.182 29.2869C142.387 28.5597 141.989 27.608 141.989 26.4318C141.989 25.4545 142.253 24.6023 142.782 23.875C143.316 23.142 144.032 22.5739 144.929 22.1705C145.833 21.7614 146.841 21.5568 147.955 21.5568C149.08 21.5568 150.08 21.7585 150.955 22.1619C151.83 22.5597 152.523 23.1051 153.035 23.7983C153.552 24.4915 153.824 25.2784 153.853 26.1591H151.807ZM156.612 23.6705V21.7955H169.703V23.6705H164.214V39.25H162.101V23.6705H156.612ZM178.76 23.6705V21.7955H191.851V23.6705H186.363V39.25H184.249V23.6705H178.76ZM195.113 39.25V21.7955H201.011C202.375 21.7955 203.494 22.0284 204.369 22.4943C205.244 22.9545 205.892 23.5881 206.312 24.3949C206.733 25.2017 206.943 26.1193 206.943 27.1477C206.943 28.1761 206.733 29.0881 206.312 29.8835C205.892 30.679 205.247 31.304 204.378 31.7585C203.508 32.2074 202.397 32.4318 201.045 32.4318H196.272V30.5227H200.977C201.909 30.5227 202.659 30.3864 203.227 30.1136C203.801 29.8409 204.216 29.4545 204.471 28.9545C204.733 28.4489 204.863 27.8466 204.863 27.1477C204.863 26.4489 204.733 25.8381 204.471 25.3153C204.21 24.7926 203.792 24.3892 203.219 24.1051C202.645 23.8153 201.886 23.6705 200.943 23.6705H197.227V39.25H195.113ZM203.329 31.4091L207.625 39.25H205.17L200.943 31.4091H203.329ZM208.379 21.7955H210.799L215.64 29.9432H215.845L220.686 21.7955H223.106L216.799 32.0568V39.25H214.686V32.0568L208.379 21.7955Z" fill="white"/>
</svg>
