<svg width="245" height="61" viewBox="0 0 245 61" fill="none" xmlns="http://www.w3.org/2000/svg">
<path d="M0 59.5V1.5C0 0.671573 0.671578 0 1.50001 0H242.462C243.603 0 244.327 1.22358 243.776 2.22327L228.611 29.7767C228.363 30.2271 228.363 30.7729 228.611 31.2233L243.776 58.7767C244.327 59.7764 243.603 61 242.462 61H1.5C0.671573 61 0 60.3284 0 59.5Z" fill="#CA1C24"/>
<path d="M43.7071 33.2929L64.7071 12.2929C64.8946 12.1054 65.149 12 65.4142 12H79.5C80.0523 12 80.5 12.4477 80.5 13V28.0858C80.5 28.351 80.3946 28.6054 80.2071 28.7929L59.7071 49.2929C59.3166 49.6834 58.6834 49.6834 58.2929 49.2929L43.7071 34.7071C43.3166 34.3166 43.3166 33.6834 43.7071 33.2929Z" fill="white"/>
<circle cx="72" cy="20.5" r="3" fill="#CA1C24"/>
<path d="M106.614 39.5V22.0455H112.511C113.881 22.0455 115 22.2926 115.869 22.7869C116.744 23.2756 117.392 23.9375 117.812 24.7727C118.233 25.608 118.443 26.5398 118.443 27.5682C118.443 28.5966 118.233 29.5312 117.812 30.3722C117.398 31.2131 116.756 31.8835 115.886 32.3835C115.017 32.8778 113.903 33.125 112.545 33.125H108.318V31.25H112.477C113.415 31.25 114.168 31.0881 114.736 30.7642C115.304 30.4403 115.716 30.0028 115.972 29.4517C116.233 28.8949 116.364 28.267 116.364 27.5682C116.364 26.8693 116.233 26.2443 115.972 25.6932C115.716 25.142 115.301 24.7102 114.727 24.3977C114.153 24.0795 113.392 23.9205 112.443 23.9205H108.727V39.5H106.614ZM121.575 39.5V26.4091H123.518V28.3864H123.655C123.893 27.7386 124.325 27.2131 124.95 26.8097C125.575 26.4062 126.28 26.2045 127.064 26.2045C127.212 26.2045 127.396 26.2074 127.618 26.2131C127.839 26.2187 128.007 26.2273 128.121 26.2386V28.2841C128.053 28.267 127.896 28.2415 127.652 28.2074C127.413 28.1676 127.161 28.1477 126.893 28.1477C126.257 28.1477 125.689 28.2812 125.189 28.5483C124.695 28.8097 124.303 29.1733 124.013 29.6392C123.729 30.0994 123.587 30.625 123.587 31.2159V39.5H121.575ZM135.425 39.7727C134.243 39.7727 133.206 39.4915 132.314 38.929C131.428 38.3665 130.734 37.5795 130.234 36.5682C129.74 35.5568 129.493 34.375 129.493 33.0227C129.493 31.6591 129.74 30.4687 130.234 29.4517C130.734 28.4347 131.428 27.6449 132.314 27.0824C133.206 26.5199 134.243 26.2386 135.425 26.2386C136.607 26.2386 137.641 26.5199 138.527 27.0824C139.419 27.6449 140.112 28.4347 140.607 29.4517C141.107 30.4687 141.357 31.6591 141.357 33.0227C141.357 34.375 141.107 35.5568 140.607 36.5682C140.112 37.5795 139.419 38.3665 138.527 38.929C137.641 39.4915 136.607 39.7727 135.425 39.7727ZM135.425 37.9659C136.322 37.9659 137.061 37.7358 137.641 37.2756C138.22 36.8153 138.649 36.2102 138.928 35.4602C139.206 34.7102 139.345 33.8977 139.345 33.0227C139.345 32.1477 139.206 31.3324 138.928 30.5767C138.649 29.821 138.22 29.2102 137.641 28.7443C137.061 28.2784 136.322 28.0455 135.425 28.0455C134.527 28.0455 133.788 28.2784 133.209 28.7443C132.629 29.2102 132.2 29.821 131.922 30.5767C131.643 31.3324 131.504 32.1477 131.504 33.0227C131.504 33.8977 131.643 34.7102 131.922 35.4602C132.2 36.2102 132.629 36.8153 133.209 37.2756C133.788 37.7358 134.527 37.9659 135.425 37.9659ZM144.427 39.5V26.4091H146.37V28.4545H146.54C146.813 27.7557 147.254 27.2131 147.862 26.8267C148.469 26.4347 149.2 26.2386 150.052 26.2386C150.915 26.2386 151.634 26.4347 152.208 26.8267C152.788 27.2131 153.239 27.7557 153.563 28.4545H153.7C154.035 27.7784 154.538 27.2415 155.208 26.8438C155.879 26.4403 156.683 26.2386 157.62 26.2386C158.79 26.2386 159.748 26.6051 160.492 27.3381C161.237 28.0653 161.609 29.1989 161.609 30.7386V39.5H159.597V30.7386C159.597 29.7727 159.333 29.0824 158.805 28.6676C158.276 28.2528 157.654 28.0455 156.938 28.0455C156.018 28.0455 155.305 28.3239 154.799 28.8807C154.293 29.4318 154.04 30.1307 154.04 30.9773V39.5H151.995V30.5341C151.995 29.7898 151.754 29.1903 151.271 28.7358C150.788 28.2756 150.165 28.0455 149.404 28.0455C148.881 28.0455 148.393 28.1847 147.938 28.4631C147.489 28.7415 147.126 29.1278 146.847 29.6222C146.575 30.1108 146.438 30.6761 146.438 31.3182V39.5H144.427ZM170.604 39.7727C169.423 39.7727 168.386 39.4915 167.494 38.929C166.607 38.3665 165.914 37.5795 165.414 36.5682C164.92 35.5568 164.673 34.375 164.673 33.0227C164.673 31.6591 164.92 30.4687 165.414 29.4517C165.914 28.4347 166.607 27.6449 167.494 27.0824C168.386 26.5199 169.423 26.2386 170.604 26.2386C171.786 26.2386 172.82 26.5199 173.707 27.0824C174.599 27.6449 175.292 28.4347 175.786 29.4517C176.286 30.4687 176.536 31.6591 176.536 33.0227C176.536 34.375 176.286 35.5568 175.786 36.5682C175.292 37.5795 174.599 38.3665 173.707 38.929C172.82 39.4915 171.786 39.7727 170.604 39.7727ZM170.604 37.9659C171.502 37.9659 172.241 37.7358 172.82 37.2756C173.4 36.8153 173.829 36.2102 174.107 35.4602C174.386 34.7102 174.525 33.8977 174.525 33.0227C174.525 32.1477 174.386 31.3324 174.107 30.5767C173.829 29.821 173.4 29.2102 172.82 28.7443C172.241 28.2784 171.502 28.0455 170.604 28.0455C169.707 28.0455 168.968 28.2784 168.388 28.7443C167.809 29.2102 167.38 29.821 167.102 30.5767C166.823 31.3324 166.684 32.1477 166.684 33.0227C166.684 33.8977 166.823 34.7102 167.102 35.4602C167.38 36.2102 167.809 36.8153 168.388 37.2756C168.968 37.7358 169.707 37.9659 170.604 37.9659Z" fill="white"/>
</svg>
