<svg width="257" height="61" viewBox="0 0 257 61" fill="none" xmlns="http://www.w3.org/2000/svg">
<path d="M0 59.5V1.5C0 0.671573 0.671581 0 1.50001 0H254.402C255.557 0 256.278 1.25 255.701 2.25L239.824 29.75C239.556 30.2141 239.556 30.7859 239.824 31.25L255.701 58.75C256.278 59.75 255.557 61 254.402 61H1.5C0.671573 61 0 60.3284 0 59.5Z" fill="#C91B23"/>
<path d="M86 22.5C87.8156 22.9539 89.2192 25.4681 90.2107 27.05C90.3882 27.3333 90.7026 27.4956 91.0363 27.517C95.1584 27.7804 96.9797 31.0406 96.5 32C96 33 87.5 45.5 77 49C70.1486 51.2838 63.7185 49.2877 60.043 47.2983C59.2583 46.8736 59.5163 45.7716 60.3866 45.5749C70.6664 43.2507 78.141 35.1475 80 30.5C82 25.5 84 22 86 22.5Z" fill="white"/>
<path d="M86.8022 21.4693C88.4535 21.6762 89.5634 22.794 89.9815 23.4697C89.9942 23.4902 90.0074 23.509 90.0226 23.5279C90.4449 24.0547 90.9874 25.0177 91.3217 25.6534C91.4285 25.8564 91.6576 25.9626 91.8841 25.9271C94.4586 25.5229 96.1072 26.9948 96.9517 28.3543C97.1915 28.7403 97.818 28.7441 97.9484 28.3088C99.0135 24.7538 97.5064 21.7523 96.3149 20.3438C96.1449 20.1428 96.1342 19.847 96.3053 19.647C97.5301 18.2149 99.5 15.7351 99.5 15C99.5 14 99 11 98 11C97.2267 11 94.5224 15.9832 93.1385 18.7243C93.0532 18.8934 92.8793 18.9994 92.69 19.0028C89.6989 19.0568 87.6541 19.886 86.4887 20.6531C86.1055 20.9053 86.347 21.4122 86.8022 21.4693Z" fill="white"/>
<path d="M135.159 25.9182C135.057 25.0546 134.642 24.3842 133.915 23.9069C133.188 23.4296 132.295 23.191 131.239 23.191C130.466 23.191 129.79 23.316 129.21 23.566C128.636 23.816 128.188 24.1597 127.864 24.5972C127.545 25.0347 127.386 25.5319 127.386 26.0887C127.386 26.5546 127.497 26.9552 127.719 27.2904C127.946 27.62 128.236 27.8955 128.588 28.1171C128.94 28.333 129.31 28.512 129.696 28.654C130.082 28.7904 130.438 28.9012 130.761 28.9864L132.534 29.4637C132.989 29.583 133.494 29.7478 134.051 29.958C134.614 30.1682 135.151 30.4552 135.662 30.8188C136.179 31.1768 136.605 31.637 136.94 32.1995C137.276 32.762 137.443 33.4523 137.443 34.2705C137.443 35.2137 137.196 36.066 136.702 36.8273C136.213 37.5887 135.497 38.1938 134.554 38.6427C133.616 39.0915 132.477 39.316 131.136 39.316C129.886 39.316 128.804 39.1143 127.889 38.7109C126.98 38.3075 126.264 37.745 125.741 37.0234C125.224 36.3018 124.932 35.4637 124.864 34.5092H127.045C127.102 35.1682 127.324 35.7137 127.71 36.1455C128.102 36.5717 128.597 36.8898 129.193 37.1001C129.795 37.3046 130.443 37.4069 131.136 37.4069C131.943 37.4069 132.668 37.2762 133.31 37.0148C133.952 36.7478 134.46 36.3785 134.835 35.9069C135.21 35.4296 135.398 34.8728 135.398 34.2364C135.398 33.6569 135.236 33.1853 134.912 32.8217C134.588 32.458 134.162 32.1626 133.634 31.9353C133.105 31.708 132.534 31.5092 131.92 31.3387L129.773 30.7251C128.409 30.333 127.33 29.7734 126.534 29.0461C125.739 28.3188 125.341 27.3671 125.341 26.191C125.341 25.2137 125.605 24.3614 126.134 23.6342C126.668 22.9012 127.384 22.333 128.281 21.9296C129.185 21.5205 130.193 21.316 131.307 21.316C132.432 21.316 133.432 21.5177 134.307 21.9211C135.182 22.3188 135.875 22.8643 136.386 23.5574C136.903 24.2506 137.176 25.0376 137.205 25.9182H135.159ZM140.918 39.0092V21.5546H146.816C148.185 21.5546 149.305 21.8018 150.174 22.2961C151.049 22.7847 151.697 23.4467 152.117 24.2819C152.538 25.1171 152.748 26.0489 152.748 27.0773C152.748 28.1057 152.538 29.0404 152.117 29.8813C151.702 30.7222 151.06 31.3927 150.191 31.8927C149.322 32.387 148.208 32.6342 146.85 32.6342H142.623V30.7592H146.782C147.719 30.7592 148.472 30.5972 149.04 30.2734C149.609 29.9495 150.021 29.512 150.276 28.9609C150.538 28.404 150.668 27.7762 150.668 27.0773C150.668 26.3785 150.538 25.7535 150.276 25.2023C150.021 24.6512 149.606 24.2194 149.032 23.9069C148.458 23.5887 147.697 23.4296 146.748 23.4296H143.032V39.0092H140.918ZM158.266 21.5546V39.0092H156.153V21.5546H158.266ZM176.55 27.0092H174.436C174.311 26.4012 174.092 25.8671 173.78 25.4069C173.473 24.9467 173.098 24.5603 172.655 24.2478C172.217 23.9296 171.732 23.691 171.197 23.5319C170.663 23.3728 170.107 23.2932 169.527 23.2932C168.47 23.2932 167.513 23.5603 166.655 24.0944C165.803 24.6285 165.124 25.4154 164.618 26.4552C164.118 27.495 163.868 28.7705 163.868 30.2819C163.868 31.7932 164.118 33.0688 164.618 34.1086C165.124 35.1484 165.803 35.9353 166.655 36.4694C167.513 37.0035 168.47 37.2705 169.527 37.2705C170.107 37.2705 170.663 37.191 171.197 37.0319C171.732 36.8728 172.217 36.637 172.655 36.3245C173.098 36.0063 173.473 35.6171 173.78 35.1569C174.092 34.691 174.311 34.1569 174.436 33.5546H176.55C176.391 34.4467 176.101 35.245 175.68 35.9495C175.26 36.654 174.737 37.2535 174.112 37.7478C173.487 38.2364 172.786 38.6086 172.007 38.8643C171.234 39.12 170.408 39.2478 169.527 39.2478C168.038 39.2478 166.714 38.8842 165.555 38.1569C164.396 37.4296 163.484 36.3955 162.82 35.0546C162.155 33.7137 161.822 32.1228 161.822 30.2819C161.822 28.441 162.155 26.8501 162.82 25.5092C163.484 24.1682 164.396 23.1342 165.555 22.4069C166.714 21.6796 168.038 21.316 169.527 21.316C170.408 21.316 171.234 21.4438 172.007 21.6995C172.786 21.9552 173.487 22.3302 174.112 22.8245C174.737 23.3131 175.26 23.9097 175.68 24.6143C176.101 25.3131 176.391 26.1114 176.55 27.0092ZM178.465 21.5546H180.886L185.727 29.7023H185.931L190.772 21.5546H193.192L186.886 31.816V39.0092H184.772V31.816L178.465 21.5546Z" fill="white"/>
</svg>
