<svg width="285" height="61" viewBox="0 0 285 61" fill="none" xmlns="http://www.w3.org/2000/svg">
<path d="M0 59.5V1.5C0 0.671573 0.671571 0 1.5 0H282.259C283.444 0 284.161 1.31041 283.522 2.30881L265.99 29.6912C265.674 30.1842 265.674 30.8158 265.99 31.3088L283.522 58.6912C284.161 59.6896 283.444 61 282.259 61H1.5C0.671573 61 0 60.3284 0 59.5Z" fill="#6A9231"/>
<path d="M59.2118 24.5657C51.3024 30.9265 46.7336 39.0502 45.1805 43.0205C45.0778 43.283 45.2338 43.5768 45.5033 43.6593C65.6144 49.819 71.8303 26.5619 72.476 13.5488C72.4907 13.2516 72.2269 13.019 71.9303 13.0414C39.1906 15.5097 38.5334 31.6347 42.5827 40.1846C42.7528 40.5438 43.2535 40.544 43.4487 40.1978C48.4005 31.4167 54.531 26.335 58.8436 23.9262C59.3478 23.6445 59.6618 24.2038 59.2118 24.5657Z" fill="white"/>
<path d="M45.5 35L40 47.5" stroke="white" stroke-linecap="round"/>
<path d="M99.3298 21.2955L104.512 35.9886H104.716L109.898 21.2955H112.114L105.705 38.75H103.523L97.1139 21.2955H99.3298ZM114.049 38.75H111.833L118.242 21.2955H120.424L126.833 38.75H124.617L119.401 24.0568H119.264L114.049 38.75ZM114.867 31.9318H123.799V33.8068H114.867V31.9318ZM140.663 26.75C140.475 26.1761 140.228 25.6619 139.921 25.2074C139.62 24.7472 139.259 24.3551 138.839 24.0312C138.424 23.7074 137.953 23.4602 137.424 23.2898C136.896 23.1193 136.316 23.0341 135.686 23.0341C134.652 23.0341 133.711 23.3011 132.865 23.8352C132.018 24.3693 131.345 25.1562 130.845 26.196C130.345 27.2358 130.095 28.5114 130.095 30.0227C130.095 31.5341 130.348 32.8097 130.853 33.8494C131.359 34.8892 132.044 35.6761 132.907 36.2102C133.771 36.7443 134.742 37.0114 135.822 37.0114C136.822 37.0114 137.703 36.7983 138.464 36.3722C139.231 35.9403 139.828 35.3324 140.254 34.5483C140.686 33.7585 140.902 32.8295 140.902 31.7614L141.549 31.8977H136.299V30.0227H142.947V31.8977C142.947 33.3352 142.64 34.5852 142.027 35.6477C141.419 36.7102 140.578 37.5341 139.504 38.1193C138.436 38.6989 137.208 38.9886 135.822 38.9886C134.277 38.9886 132.919 38.625 131.748 37.8977C130.583 37.1705 129.674 36.1364 129.021 34.7955C128.373 33.4545 128.049 31.8636 128.049 30.0227C128.049 28.642 128.234 27.4006 128.603 26.2983C128.978 25.1903 129.507 24.2472 130.188 23.4688C130.87 22.6903 131.677 22.0938 132.609 21.679C133.541 21.2642 134.566 21.0568 135.686 21.0568C136.606 21.0568 137.464 21.196 138.259 21.4744C139.061 21.7472 139.774 22.1364 140.399 22.642C141.029 23.142 141.555 23.7415 141.975 24.4403C142.396 25.1335 142.686 25.9034 142.845 26.75H140.663ZM146.567 38.75V21.2955H157.101V23.1705H148.681V29.0682H156.556V30.9432H148.681V36.875H157.237V38.75H146.567ZM159.956 23.1705V21.2955H173.047V23.1705H167.558V38.75H165.445V23.1705H159.956ZM174.986 38.75H172.77L179.179 21.2955H181.361L187.77 38.75H185.554L180.338 24.0568H180.202L174.986 38.75ZM175.804 31.9318H184.736V33.8068H175.804V31.9318ZM190.489 38.75V21.2955H196.387C197.75 21.2955 198.87 21.5284 199.745 21.9943C200.62 22.4545 201.267 23.0881 201.688 23.8949C202.108 24.7017 202.318 25.6193 202.318 26.6477C202.318 27.6761 202.108 28.5881 201.688 29.3835C201.267 30.179 200.622 30.804 199.753 31.2585C198.884 31.7074 197.773 31.9318 196.421 31.9318H191.648V30.0227H196.353C197.284 30.0227 198.034 29.8864 198.603 29.6136C199.176 29.3409 199.591 28.9545 199.847 28.4545C200.108 27.9489 200.239 27.3466 200.239 26.6477C200.239 25.9489 200.108 25.3381 199.847 24.8153C199.585 24.2926 199.168 23.8892 198.594 23.6051C198.02 23.3153 197.262 23.1705 196.318 23.1705H192.603V38.75H190.489ZM198.705 30.9091L203 38.75H200.546L196.318 30.9091H198.705ZM207.954 21.2955V38.75H205.84V21.2955H207.954ZM212.908 38.75H210.692L217.101 21.2955H219.283L225.692 38.75H223.476L218.26 24.0568H218.124L212.908 38.75ZM213.726 31.9318H222.658V33.8068H213.726V31.9318ZM242.252 21.2955V38.75H240.206L230.695 25.0455H230.524V38.75H228.411V21.2955H230.456L240.002 35.0341H240.172V21.2955H242.252Z" fill="white"/>
</svg>
